<?xml version="1.0" encoding="UTF-8" standalone="no"?>
<svg
   xmlns:dc="http://purl.org/dc/elements/1.1/"
   xmlns:cc="http://creativecommons.org/ns#"
   xmlns:rdf="http://www.w3.org/1999/02/22-rdf-syntax-ns#"
   xmlns:svg="http://www.w3.org/2000/svg"
   xmlns="http://www.w3.org/2000/svg"
   xmlns:sodipodi="http://sodipodi.sourceforge.net/DTD/sodipodi-0.dtd"
   xmlns:inkscape="http://www.inkscape.org/namespaces/inkscape"
   version="1.1"
   id="Capa_1"
   x="0px"
   y="0px"
   width="70.668144"
   height="70.666664"
   viewBox="5 -10 70.668144 95.399999"
   enable-background="new 0 0 100 100"
   xml:space="preserve"
   inkscape:version="0.48.4 r9939"
   sodipodi:docname="SetHomeTool.svg"><metadata
     id="metadata18"><rdf:RDF><cc:Work
         rdf:about=""><dc:format>image/svg+xml</dc:format><dc:type
           rdf:resource="http://purl.org/dc/dcmitype/StillImage" /><dc:title></dc:title></cc:Work></rdf:RDF></metadata><defs
     id="defs16" /><sodipodi:namedview
     pagecolor="#ffffff"
     bordercolor="#666666"
     borderopacity="1"
     objecttolerance="10"
     gridtolerance="10"
     guidetolerance="10"
     inkscape:pageopacity="0"
     inkscape:pageshadow="2"
     inkscape:window-width="640"
     inkscape:window-height="480"
     id="namedview14"
     showgrid="false"
     fit-margin-top="2"
     fit-margin-left="12"
     fit-margin-right="12"
     fit-margin-bottom="2"
     inkscape:zoom="2.36"
     inkscape:cx="42.840796"
     inkscape:cy="29.777782"
     inkscape:window-x="0"
     inkscape:window-y="0"
     inkscape:window-maximized="0"
     inkscape:current-layer="Capa_1" /><g
     id="Capa_10"
     transform="translate(-9.6649262,-12.3)"><g
       id="g4"><polygon
         points="38.139,51.8 47.257,51.8 47.257,40.92 52.743,40.92 52.743,51.8 61.855,51.8 61.855,37.115 65.604,37.115 59.984,31.386 59.984,24.01 55.616,24.01 55.616,26.933 49.998,21.207 34.396,37.115 38.139,37.115 "
         id="polygon6" /><path
         d="M 49.999,5 C 32.598,5 18.498,19.103 18.498,36.503 c 0,13.673 8.721,25.279 20.899,29.642 L 49.999,95 60.603,66.139 C 72.777,61.785 81.5,50.177 81.5,36.504 81.502,19.103 67.395,5 49.999,5 z m 0,55.182 c -13.076,0 -23.677,-10.6 -23.677,-23.679 0,-13.071 10.6,-23.679 23.677,-23.679 13.076,0 23.679,10.608 23.679,23.679 0,13.079 -10.603,23.679 -23.679,23.679 z"
         id="path8"
         inkscape:connector-curvature="0" /></g></g></svg>